<?xml version="1.0" encoding="UTF-8"?>
<svg id="Layer_1" data-name="Layer 1" xmlns="http://www.w3.org/2000/svg" xmlns:xlink="http://www.w3.org/1999/xlink" viewBox="0 0 2243.75 653.81">
  <defs>
    <style>
      .cls-1 {
        fill: url(#linear-gradient);
      }

      .cls-1, .cls-2, .cls-3 {
        stroke-width: 0px;
      }

      .cls-2 {
        fill: #1b4a8d;
      }

      .cls-3 {
        fill: #0f3486;
      }
    </style>
    <linearGradient id="linear-gradient" x1="306.33" y1="2103.89" x2="308.33" y2="1510.89" gradientTransform="translate(0 -1504)" gradientUnits="userSpaceOnUse">
      <stop offset="0" stop-color="#263c82"/>
      <stop offset="1" stop-color="#1e72a4"/>
    </linearGradient>
  </defs>
  <path class="cls-1" d="M31.25,1.7c-8.9,4-10.7,5.2-16.4,10.8C7.05,20.3,3.25,27.8,1.45,39,.75,43.3.35,133.1.15,308.5c-.3,294-.9,267.1,7,280.5,4.8,8,11,13.7,20.1,18.2l6.5,3.3,271.9.3c271.2.2,272,.2,277.4-1.8,14.1-5.3,25.3-17.7,29.7-33,1.4-5,1.5-30.4,1-271-.4-183.1-.9-266.9-1.7-270-3.3-13.8-12.7-25.5-25.4-31.5l-7.3-3.5-272.3.1C61.15.1,34.45.3,31.25,1.7ZM490.25,87.2c24.1,7.8,37.2,22,41.5,45.2,1.4,7.8,1.5,14.5.9,56.7-.6,38.4-1,47.9-2,48.3-.8.3-6.2.1-12.1-.5-6-.5-16.3-1.4-23-1.9-16.8-1.3-22.7-2.1-23.5-3.4-.4-.6-.8-19.2-.8-41.4,0-25.9-.4-41-1-42.3-1-1.7-2.2-1.9-13.3-1.9-8.2,0-12.7.4-13.5,1.2-.9.9-1.2,16.9-1.2,65.9v64.8l2.3.7c1.2.4,4.7,1.8,7.7,3.2,3,1.3,7.3,3.3,9.5,4.2,2.2,1,7,3.2,10.7,4.9s6.9,3.1,7.2,3.1,4.4,1.8,9.1,4,8.8,4,9.1,4c.2,0,3.9,1.7,8.1,3.7,5.1,2.5,9.7,5.7,13.8,9.7,6.9,6.8,9.7,11.6,11.4,19.4,1.5,7.1,1.5,137.8,0,147.1-4.1,25.6-22.1,42.8-48.4,46.1-10.6,1.3-43.8,1.3-52.8-.1-14.1-2.1-22.3-5.9-31.5-14.5-7.8-7.1-12.8-15.7-15.6-26.4-1.4-5.7-1.6-11.7-1.4-46.5l.3-40,29.4-.3c22.9-.2,29.6.1,30.3,1,.4.7.8,15.6.7,33.2,0,26.9.2,32.1,1.4,33.4,1.2,1.1,4.1,1.4,13.3,1.3,10.8-.1,12.1-.3,13.7-2.2,1.6-2,1.7-6.2,1.7-56.6v-54.4l-6.7-3c-3.8-1.7-8.7-3.9-11-5-2.4-1-6.2-2.7-8.5-3.8-2.4-1-8.1-3.5-12.6-5.5-4.6-2.1-11.7-5-15.8-6.6-16.9-6.5-28-15.1-33-25.6l-2.9-5.9-.8-39c-1.2-59.1-.4-128.7,1.6-135,6.2-20.5,20.8-34.3,42-39.6,6.3-1.6,10.7-1.8,34.2-1.5,20.1.3,28.2.7,31.5,1.8h0ZM203.85,89.7c2.3.5,7.4,2.6,11.5,4.7,11.2,5.5,19.7,14.2,25.1,25.6,5.3,11,5.6,15.7,5.7,72.8.1,33.6-.3,52-.9,53.3-1,1.8-2.4,1.9-29.9,1.9-22.9,0-29.1-.3-30-1.3-.7-1-1.2-15.9-1.3-49.3l-.3-47.9h-40l-.9,156.8c-.8,149.6-.8,156.9.9,158.7,1.7,1.9,3.2,2,20.1,2s18.3-.1,19.8-2.2c1.3-1.9,1.5-9.7,1-64.7-.4-34.4-.8-62.8-1-63-.3-.3-5.1-.4-10.7-.2-7.6.2-10.6-.1-11.4-1.1-.8-.9-.8-4.7-.2-12.8.5-6.3,1.5-18.8,2.2-27.6.8-10.4,1.7-16.8,2.6-17.8,1.2-1.4,5.6-1.6,39.7-1.6s38.4.2,39.2,1.6c.5.9.7,44.8.5,101.7l-.4,100.2-2.6,8.3c-2.9,9.5-9.7,20-16.6,25.6-6.3,5.1-18.2,10.4-26.7,11.7-4.7.7-18.7.9-40.8.6-30-.4-34.2-.7-38.7-2.4-17.7-6.7-27.1-15.8-34.1-32.8l-2.9-7-.6-170.5c-.4-96.9-.3-173.3.2-177,3-22.3,19.9-40.8,42.4-46.5,6.1-1.6,72.7-1.4,79.1.2h0ZM329.95,233.5c8.2,2.1,13.2,6.1,17.1,13.5,3.1,6,3.3,6.7,3,15.9l-.3,9.6h-30l-.7-4.9c-.4-2.7-1.3-5.3-2-5.7-.7-.5-5.4-.9-10.5-.9-8.1,0-9.4.2-10.3,1.9-1.5,2.9-1.3,26.3.3,28.4,1.1,1.6,4.3,1.8,31.5,2,25.6.2,30.4.4,31.2,1.7,1.1,1.8,1.3,23,.2,24.7-.4.6-2.5,1.3-4.7,1.5l-4,.3-.6,20.5c-.3,11.3-1,21.9-1.6,23.6-2.7,8-6.9,13.1-13.8,16.8-3.8,2-5.3,2.1-28,2.1s-24.2-.1-28.6-2.3c-5.5-2.6-10.3-7.7-13.2-14.1-1.9-4.2-2.1-6.4-2.1-25.1s.2-20.8,2.2-25.2c1.3-2.6,3.4-6.1,4.8-7.8l2.6-3-3.1-4.6c-4.5-6.8-5.3-12.5-4.9-32.4.3-16.8.4-17.7,3.1-23.3,3.3-6.5,9-11.1,16.5-13.2,7-1.9,38.5-1.9,45.9,0Z"/>
  <path class="cls-2" d="M295.85,323.2c-1.3,1.8-1.6,5.2-1.6,16.4,0,7.8.3,14.9.6,15.8.5,1.3,2.5,1.6,11.9,1.6,8,0,11.6-.4,12.3-1.3.9-1,1.7-22.5,1.2-33.5,0-.9-3-1.2-11.4-1.2-10.7,0-11.6.1-13,2.2Z"/>
  <path class="cls-3" d="M795.25,168v96h30V72h-30v96Z"/>
  <path class="cls-3" d="M940.75,119.5c-11.7,2.1-28.5,8.9-36.7,14.7l-2.8,1.9v-15.1h-27v143h30v-108.5l5.3-3.1c8.1-4.9,19.3-8.5,27.9-9.1,14.2-1,20.9,2.7,24.3,13.4,1.7,5.2,1.9,10.7,2.2,56.5l.4,50.8h30.1l-.5-53.3c-.5-57.2-.9-61.9-6-73.1-4.9-10.7-12.9-16.5-25.8-18.5-8-1.3-12.6-1.3-21.4.4h0Z"/>
  <path class="cls-3" d="M1371.65,119.4c-7.8,1.8-16.8,6.4-23.7,12-3,2.5-5.8,4.2-6.1,3.9-.3-.4-.6-2-.6-3.7s-.3-4.8-.6-6.9l-.7-3.7h-24.7v143h29v-107l4.8-3.4c7.7-5.7,14.4-7.8,25.7-8.4,9.1-.4,13.5.2,18.8,2.3,1.6.7,1.7-.3,1.7-13.3,0-12.1-.2-14.1-1.6-14.6-3.7-1.4-16.1-1.5-22-.2h0Z"/>
  <path class="cls-3" d="M1453.15,119c-12.2,1.9-29.6,7.2-37.7,11.4l-3.1,1.6,3.5,10.4,3.5,10.3,6-2.4c12.9-5.2,20.5-6.6,35.9-6.7,13.7-.1,14.7,0,18.9,2.4,6.7,3.8,8.1,7.4,8.1,20.1v10.6l-11.2.7c-29.1,1.9-48.2,8-59.4,19.2-7.5,7.6-10.5,14.4-11.2,25.3-1.4,25.1,14.6,42.3,40.9,43.9,13.6.8,29.7-3.9,39.7-11.4l3.2-2.5v12.1h28.1l-.3-57.3c-.3-50.6-.6-57.8-2.1-62.2-4.1-12.4-12.6-20.1-26.2-23.5-9.2-2.3-28-3.4-36.6-2h0ZM1488.25,215v20l-3.2,2c-8.2,5-13.8,6.4-25.4,6.5-10.5,0-11.3-.1-15.3-2.8-5.6-3.8-8-9.1-8.1-18,0-10.1,3.2-14.7,14.1-20.3,7-3.5,22.2-6.7,35.2-7.3l2.7-.1v20h0Z"/>
  <path class="cls-3" d="M1626.75,119.5c-11.7,2.1-28.5,8.9-36.7,14.7l-2.8,1.9v-15.1h-27v143h30v-108.5l5.3-3.1c8.1-4.9,19.3-8.5,27.9-9.1,14.2-1,20.9,2.7,24.3,13.4,1.7,5.2,1.9,10.7,2.2,56.5l.4,50.8h30.1l-.5-53.3c-.5-57.2-.9-61.9-6-73.1-4.9-10.7-12.9-16.5-25.8-18.5-8-1.3-12.6-1.3-21.4.4h0Z"/>
  <path class="cls-3" d="M1061.65,120.8c-14.9,3.8-24.4,10.4-29.4,20.5-5.9,12-4.8,26.5,2.8,37.7,5.7,8.4,13.9,14.2,32.7,23.5,25.8,12.7,30,16.4,29.2,26.3-.4,6.2-3,9.5-9.5,12.4-11.2,5.1-34,2.3-54.3-6.6-1.3-.6-1.9,1.1-3.5,10.3l-2,11,5.6,2.5c11.3,5.1,22,7,39.5,7,12.8.1,17.2-.3,22-1.7,13.5-4.2,22.5-11,27.2-20.6,2.6-5.1,2.8-6.6,2.8-17.1s-.3-12-2.3-15.7c-5.5-10.3-13.2-16.2-38.7-29.5-9.9-5.2-19.5-10.5-21.2-11.8-4.1-3-6.3-7.6-6.3-13.4,0-6.1,4.2-11,11.3-13.1,11.3-3.4,36.7-.8,43.8,4.5l2.7,1.9,2.1-11.2c1.2-6.7,1.7-11.5,1.2-12s-4.7-2.1-9.3-3.5c-11.4-3.4-35.6-4.1-46.4-1.4h0Z"/>
  <path class="cls-3" d="M1761.25,120.6c-10.6,2.2-22,8.5-29.8,16.3-15.3,15.3-23.1,40.9-20.3,66.7,2.1,19.8,8.2,33.6,20.1,45.4,12.9,13,26.1,17.6,47,16.7,15.8-.8,30.2-5.1,37.8-11.3l2.2-1.9-2.8-8.5-2.7-8.5-5.7,2.3c-10.8,4.2-17.5,5.4-28.3,5-8.4-.3-10.9-.8-15.6-3.1-18.1-8.8-27.4-34.4-22.5-61.9,2.8-15.2,10.4-26.1,22.4-32,5.8-2.9,7.7-3.3,16.6-3.6,11-.4,20.7,1.3,27.6,4.8l4,2,.5-2.2c.3-1.3,1.4-6.5,2.4-11.7l1.9-9.3-4.4-2c-2.5-1-7.5-2.6-11.2-3.3-8.5-1.9-30.6-1.8-39.2.1h0Z"/>
  <path class="cls-3" d="M1885.55,121c-21.3,5.6-36.4,21.4-43.4,45.2-2.6,9.1-3.7,32.6-2,43.7,2.7,17.1,10.7,33.2,20.9,42.1,15.5,13.4,41.8,17.5,68.7,10.6,10.7-2.8,22.5-8,22.5-9.9,0-.7-1.1-4.6-2.6-8.9l-2.5-7.6-5.2,1.8c-16.2,5.7-36.3,7-47.7,3-10.1-3.4-16.3-8.7-20.9-17.9-2.4-4.6-5.1-15.6-5.1-20.9v-3.2h87.9l.7-4.5c1.1-7.6-.2-34.4-2-39.8-5.7-17.5-17.4-29.1-34.5-34.1-7.7-2.3-25.4-2.1-34.8.4h0ZM1913.35,141.5c5.7,2,10.2,6.5,12.9,12.7,2.3,5.3,4.3,19.6,3.4,23.5l-.6,2.3h-60.1l.6-5.3c2-16.3,10.5-29,22.4-33.3,5.1-1.8,16.1-1.7,21.4.1h0Z"/>
  <path class="cls-3" d="M1157.45,174.2c.4,52.2.5,54.6,2.6,62.2,2.9,10.6,6.9,17.3,12.7,21.7,6.5,5,13.2,7,25,7.6,14.6.7,26.9-2.8,47.8-13.5.4-.2.7,1.2.7,3.2,0,8.6,3.4,10.6,17.6,10.6h9.4V120h-30l-.2,56.2-.3,56.2-5.8,2.8c-9.5,4.7-20,7-28.5,6.4-12.7-1-16.7-4-19.8-15.2-1.4-5-1.8-13.3-2.1-56.2l-.5-50.2h-28.9l.3,54.2h0Z"/>
  <path class="cls-3" d="M1555.25,426v105h30v-210h-30v105Z"/>
  <path class="cls-3" d="M860.15,338c-42.1,5-72,36.1-77.9,81.1-5.2,40.4,8.5,78.2,35.6,97.5,14.6,10.4,29.8,15.3,50.4,16.1,16,.6,27.3-1,41.9-6.1l9.6-3.3.3-13.3c.3-13,.2-13.3-1.6-11.7-5.9,5.3-28.2,10.7-44.4,10.7-18.5,0-29-4.2-41.4-16.5-6.6-6.5-8.9-9.6-12.1-16.5-7-14.7-10.1-31.8-8.9-48.7,2.3-31.3,15.8-52.7,39.2-62,6.6-2.7,7.7-2.8,24.4-2.8,15.3,0,18.5.3,25.5,2.3,4.4,1.3,9.9,3.4,12.3,4.7,2.3,1.3,4.2,2.1,4.2,1.7,0-.3.9-6.4,2.1-13.5,1.1-7.1,1.9-13,1.7-13.2-1.2-1.2-25.7-5.7-35.4-6.5-13.3-1.1-16-1.1-25.5,0h0Z"/>
  <path class="cls-3" d="M1644.25,366.2c-5.1,16.7-7.1,20.2-12.8,22.6-2.6,1.1-6.9,2.6-9.5,3.2l-4.7,1.2v15.8h18.9l.3,50.2c.3,36.1.7,51.3,1.6,53.9,1.8,5.4,6.3,11.6,10.5,14.4,11.9,8.1,35.6,6.9,55.5-2.7,3.4-1.7,6.2-3.5,6.2-4,0-.8-4.1-15.8-4.5-16.5-.1-.2-2.3.6-5.1,1.6-7.4,2.8-19.2,4.4-24.4,3.2-5.3-1.2-7.8-3.6-9.2-8.7-.5-2.2-1.2-23.5-1.5-47.7l-.6-43.7h41.3v-22h-41v-32h-17.5l-3.5,11.2h0Z"/>
  <path class="cls-3" d="M2060.25,366.2c-5.1,16.7-7.1,20.2-12.8,22.6-2.6,1.1-6.9,2.6-9.5,3.2l-4.7,1.2v15.8h18.9l.3,50.2c.3,36.1.7,51.3,1.6,53.9,1.8,5.4,6.3,11.6,10.5,14.4,11.9,8.1,35.6,6.9,55.5-2.7,3.4-1.7,6.2-3.5,6.2-4,0-.8-4.1-15.8-4.5-16.5-.1-.2-2.3.6-5.1,1.6-7.4,2.8-19.2,4.4-24.4,3.2-5.3-1.2-7.8-3.6-9.2-8.7-.5-2.2-1.2-23.5-1.5-47.7l-.6-43.7h41.3v-22h-41v-32h-17.5l-3.5,11.2h0Z"/>
  <path class="cls-3" d="M1177.75,386.5c-11.7,2.1-28.5,8.9-36.7,14.7l-2.8,1.9v-15.1h-27v143h30v-108.5l5.3-3.1c8.1-4.9,19.3-8.5,27.9-9.1,14.2-1,20.9,2.7,24.3,13.4,1.7,5.2,1.9,10.7,2.2,56.5l.4,50.8h30.1l-.5-53.3c-.5-57.2-.9-61.9-6-73.1-4.9-10.7-12.9-16.5-25.8-18.5-8-1.3-12.6-1.3-21.4.4Z"/>
  <path class="cls-3" d="M1776.15,386c-12.2,1.9-29.6,7.2-37.7,11.4l-3.1,1.6,3.5,10.4,3.5,10.3,6-2.4c12.9-5.2,20.5-6.6,35.9-6.7,13.7-.1,14.7,0,18.9,2.4,6.7,3.8,8.1,7.4,8.1,20.1v10.6l-11.2.7c-29.1,1.9-48.2,8-59.4,19.2-7.5,7.6-10.5,14.4-11.2,25.3-1.4,25.1,14.6,42.3,40.9,43.9,13.6.8,29.7-3.9,39.7-11.4l3.2-2.5v12.1h28.1l-.3-57.3c-.3-50.6-.6-57.8-2.1-62.2-4.1-12.4-12.6-20.1-26.2-23.5-9.2-2.3-28-3.4-36.6-2h0ZM1811.25,482v20l-3.2,2c-8.2,5-13.8,6.4-25.4,6.5-10.5,0-11.3-.1-15.3-2.8-5.6-3.8-8-9.1-8.1-18,0-10.1,3.2-14.7,14.1-20.3,7-3.5,22.2-6.7,35.2-7.3l2.7-.1v20h0Z"/>
  <path class="cls-3" d="M1949.75,386.5c-11.7,2.1-28.5,8.9-36.7,14.7l-2.8,1.9v-15.1h-27v143h30v-108.5l5.3-3.1c8.1-4.9,19.3-8.5,27.9-9.1,14.2-1,20.9,2.7,24.3,13.4,1.7,5.2,1.9,10.7,2.2,56.5l.4,50.8h30.1l-.5-53.3c-.5-57.2-.9-61.9-6-73.1-4.9-10.7-12.9-16.5-25.8-18.5-8-1.3-12.6-1.3-21.4.4Z"/>
  <path class="cls-3" d="M997.75,387c-24.4,5.2-41.9,21.9-48.7,46.9-1.8,6.4-2.2,10.3-2.1,24.6,0,15.1.3,18.1,2.6,26.7,1.4,5.4,4.3,13,6.3,17,5,9.7,15.6,20.3,24.4,24.5,19.2,9.3,47.4,8,65.8-3,8.1-4.8,18.4-16.2,22.6-24.9,6.1-12.9,7.1-18.1,7.1-38.8,0-16.2-.3-19.6-2.3-27-3.6-13.3-8.6-22.4-16.7-30.6-11.8-12-20.8-15.5-41-16-7.7-.2-15.8.1-18,.6h0ZM1024.95,409.8c8.5,4.4,15.3,14,18.8,26.8,2.6,9.2,3.1,32.1,1.1,42.5-4.5,22.5-17,34-35.5,32.7-8.1-.6-13.3-3.1-19-9.3-9-9.8-13.3-24.6-13.3-46,0-25.8,7.3-41.7,21.8-47.5,6.7-2.8,20-2.3,26.1.8Z"/>
  <path class="cls-3" d="M1298.65,387.8c-14.9,3.8-24.4,10.4-29.4,20.5-5.9,12-4.8,26.5,2.8,37.7,5.7,8.4,13.9,14.2,32.7,23.5,25.8,12.7,30,16.4,29.2,26.3-.4,6.2-3,9.5-9.5,12.4-11.2,5.1-34,2.3-54.3-6.6-1.3-.6-1.9,1.1-3.5,10.3l-2,11,5.6,2.5c11.3,5.1,22,7,39.5,7,12.8.1,17.2-.3,22-1.7,13.5-4.2,22.5-11,27.2-20.6,2.6-5.1,2.8-6.6,2.8-17.1s-.3-12-2.3-15.7c-5.5-10.3-13.2-16.2-38.7-29.5-9.9-5.2-19.5-10.5-21.2-11.8-4.1-3-6.3-7.6-6.3-13.4,0-6.1,4.2-11,11.3-13.1,11.3-3.4,36.7-.8,43.8,4.5l2.7,1.9,2.1-11.2c1.2-6.7,1.7-11.5,1.2-12s-4.7-2.1-9.3-3.5c-11.4-3.4-35.6-4.1-46.4-1.4h0Z"/>
  <path class="cls-3" d="M2180.65,387.8c-14.9,3.8-24.4,10.4-29.4,20.5-5.9,12-4.8,26.5,2.8,37.7,5.7,8.4,13.9,14.2,32.7,23.5,25.8,12.7,30,16.4,29.2,26.3-.4,6.2-3,9.5-9.5,12.4-11.2,5.1-34,2.3-54.3-6.6-1.3-.6-1.9,1.1-3.5,10.3l-2,11,5.6,2.5c11.3,5.1,22,7,39.5,7,12.8.1,17.2-.3,22-1.7,13.5-4.2,22.5-11,27.2-20.6,2.6-5.1,2.8-6.6,2.8-17.1s-.3-12-2.3-15.7c-5.5-10.3-13.2-16.2-38.7-29.5-9.9-5.2-19.5-10.5-21.2-11.8-4.1-3-6.3-7.6-6.3-13.4,0-6.1,4.2-11,11.3-13.1,11.3-3.4,36.7-.8,43.8,4.5l2.7,1.9,2.1-11.2c1.2-6.7,1.7-11.5,1.2-12s-4.7-2.1-9.3-3.5c-11.4-3.4-35.6-4.1-46.4-1.4h0Z"/>
  <path class="cls-3" d="M1394.45,441.2c.4,52.2.5,54.6,2.6,62.2,2.9,10.6,6.9,17.3,12.7,21.7,6.5,5,13.2,7,25,7.6,14.6.7,26.9-2.8,47.8-13.5.4-.2.7,1.2.7,3.2,0,8.6,3.4,10.6,17.6,10.6h9.4v-146h-30l-.2,56.2-.3,56.2-5.8,2.8c-9.5,4.7-20,7-28.5,6.4-12.7-1-16.7-4-19.8-15.2-1.4-5-1.8-13.3-2.1-56.2l-.5-50.2h-28.9l.3,54.2h0Z"/>
  <path class="cls-3" d="M870.3,568.25c-6.5,1.5-9.5,3-13.3,6.6-4.6,4.2-6.1,7.9-6.1,15.2,0,11.6,5.8,18.5,23.1,27.3,12,6.2,14.3,8.4,14.3,13.6,0,4.9-2.4,7.6-7.6,8.6-5.3,1-15.3-.2-21.4-2.5-3-1.1-5.5-2-5.5-1.8-.7.9-2.5,12.9-2.1,13.6,1.3,2,13.5,4.4,23.1,4.5,12.1.1,18-1.4,23.6-6.2,5.3-4.6,7.9-10.1,7.9-17.2,0-11.3-4.7-16.7-23.1-26.5-11.9-6.4-15.2-9.5-15.2-14.5,0-5.6,3.1-7.5,13.1-7.8,7.6-.3,9.3,0,13.5,2.1l4.7,2.4.6-2.6c.3-1.4,1-4.3,1.5-6.4.6-2,.7-4.1.4-4.6-2.1-3.6-22.2-6-31.5-3.8h0Z"/>
  <path class="cls-3" d="M931.6,567.65l-11.3.4v84.9h17v-25.7l10.3-.6c12-.7,15.9-1.7,21.7-5.6,8.5-5.7,12.8-16.3,11.7-28.8-1.4-14.2-8.1-21.6-22.2-24.2-3.2-.6-8.1-1-10.9-.9s-10.2.4-16.3.5h0ZM956.3,581.75c4.8,2.4,7,7.1,7,15.2,0,7.2-2,11.6-6.4,14.5-2.8,1.9-13,3.1-17,2.1l-2.6-.6v-15.9c0-8.7.3-16.1.7-16.4,1.4-1.5,14.8-.7,18.3,1.1h0Z"/>
  <path class="cls-3" d="M1030.5,569.95c-2.4,1.6-7.3,4.1-11,5.6-3.7,1.5-7.1,3.1-7.5,3.5-.5.3-.5,2.8-.1,5.4.7,5.2.2,5.1,10.2,2.9l3.2-.7v66.3h18v-85h-2.9c-1.6,0-3.5-.2-4.3-.4-.7-.3-3.2.8-5.6,2.4h0Z"/>
  <path class="cls-3" d="M1090.8,567.85c-.3.6-6.6,14.6-14.1,31.3l-13.5,30.3,1.8,3.2,1.8,3.3h37.5v17h16v-17h13v-12h-13v-25h-14.8l-.7,12.5-.7,12.5h-22.8l2.6-4.2c3.1-4.9,24.6-46,24.2-46.3-7.1-5-15.9-7.8-17.3-5.6Z"/>
  <path class="cls-3" d="M1165,568.05c-6,.9-16.3,5.7-19.3,9-1.13,1.27.03,4.53,3.5,9.8.7,1.1,1.4,1,3.7-.8,1.6-1.1,5.7-2.8,9.1-3.6,7.8-2,13-.9,16.7,3.6,2.2,2.6,2.6,4,2.6,9.7,0,8.2-3.5,16.2-11.2,25.9-5.2,6.6-15.8,16.3-22.7,20.8-3.8,2.5-3.8,2.6-2.7,6.5l1,4h56.6v-14.2l-17.2.8-17.3.7,7.7-6.2c14.8-11.9,22.9-24.9,23.6-37.9.6-10.1-1.1-15.5-6.7-21.3-6.2-6.3-15.3-8.6-27.4-6.8h0Z"/>
  <path class="cls-3" d="M1239.9,568.55c-13.6,4.3-22.3,16-24.8,33.2-2,14,1.4,30.6,8.2,40.1,10.8,14.9,33.4,16.1,46.1,2.4,8-8.5,10.9-16.6,11.6-31.8,1-21.7-6-37.4-19.3-43-5.6-2.3-16-2.8-21.8-.9ZM1254.7,583.05c6.1,4.8,9.4,18.4,8.1,33.2-1.2,14.6-4.6,21.8-11,23.6-11.7,3.2-18.5-8.3-18.5-30.9,0-13,1.9-20.1,6.5-24.7,2.7-2.7,4-3.3,7.8-3.3,3,0,5.3.7,7.1,2.1h0Z"/>
  <path class="cls-3" d="M1318.9,568.55c-13.6,4.3-22.3,16-24.8,33.2-2,14,1.4,30.6,8.2,40.1,10.8,14.9,33.4,16.1,46.1,2.4,8-8.5,10.9-16.6,11.6-31.8,1-21.7-6-37.4-19.3-43-5.6-2.3-16-2.8-21.8-.9ZM1333.7,583.05c6.1,4.8,9.4,18.4,8.1,33.2-1.2,14.6-4.6,21.8-11,23.6-11.7,3.2-18.5-8.3-18.5-30.9,0-13,1.9-20.1,6.5-24.7,2.7-2.7,4-3.3,7.8-3.3,3,0,5.3.7,7.1,2.1h0Z"/>
  <path class="cls-3" d="M792.3,610.45v42.5h17v-35h26v-13h-26v-23h34v-14h-51v42.5Z"/>
</svg>