<svg xmlns="http://www.w3.org/2000/svg" xmlns:xlink="http://www.w3.org/1999/xlink" width="500" zoomAndPan="magnify" viewBox="0 0 375 374.999991" height="500" preserveAspectRatio="xMidYMid meet" version="1.0"><defs><clipPath id="25ca9823c2"><path d="M 10.316406 114.792969 L 96.339844 114.792969 L 96.339844 200.097656 L 10.316406 200.097656 Z M 10.316406 114.792969 " clip-rule="nonzero"/></clipPath><clipPath id="b4b57323c9"><path d="M 3.578125 106.535156 L 104 106.535156 L 104 207 L 3.578125 207 Z M 3.578125 106.535156 " clip-rule="nonzero"/></clipPath><clipPath id="25b2c4e6d1"><path d="M 8.664062 106.820312 C 7.214844 107.472656 6.921875 107.667969 5.996094 108.578125 C 4.726562 109.851562 4.105469 111.070312 3.8125 112.894531 C 3.699219 113.597656 3.636719 128.222656 3.601562 156.789062 C 3.554688 204.671875 3.457031 200.289062 4.742188 202.472656 C 5.523438 203.777344 6.53125 204.703125 8.015625 205.4375 L 9.070312 205.976562 L 53.332031 206.023438 C 97.480469 206.054688 97.609375 206.054688 98.488281 205.730469 C 100.785156 204.867188 102.609375 202.847656 103.324219 200.355469 C 103.550781 199.542969 103.570312 195.40625 103.488281 156.21875 C 103.421875 126.398438 103.339844 112.75 103.210938 112.242188 C 102.671875 109.996094 101.144531 108.089844 99.074219 107.113281 L 97.886719 106.542969 L 53.5625 106.558594 C 13.53125 106.558594 9.1875 106.59375 8.664062 106.820312 Z M 83.382812 120.746094 C 87.304688 122.015625 89.4375 124.328125 90.140625 128.109375 C 90.367188 129.378906 90.382812 130.46875 90.285156 137.34375 C 90.1875 143.597656 90.121094 145.144531 89.960938 145.207031 C 89.828125 145.257812 88.949219 145.226562 87.992188 145.128906 C 87.011719 145.046875 85.335938 144.898438 84.246094 144.816406 C 81.511719 144.605469 80.550781 144.476562 80.421875 144.265625 C 80.355469 144.167969 80.289062 141.136719 80.289062 137.519531 C 80.289062 133.304688 80.226562 130.84375 80.128906 130.632812 C 79.964844 130.355469 79.769531 130.324219 77.960938 130.324219 C 76.628906 130.324219 75.894531 130.386719 75.765625 130.519531 C 75.617188 130.664062 75.570312 133.269531 75.570312 141.25 L 75.570312 151.804688 L 75.945312 151.917969 C 76.140625 151.984375 76.710938 152.210938 77.199219 152.441406 C 77.6875 152.652344 78.386719 152.976562 78.742188 153.125 C 79.101562 153.285156 79.882812 153.644531 80.484375 153.921875 C 81.089844 154.199219 81.609375 154.425781 81.65625 154.425781 C 81.707031 154.425781 82.375 154.71875 83.140625 155.078125 C 83.90625 155.4375 84.570312 155.730469 84.621094 155.730469 C 84.652344 155.730469 85.253906 156.007812 85.9375 156.332031 C 86.769531 156.738281 87.519531 157.261719 88.1875 157.914062 C 89.308594 159.019531 89.765625 159.800781 90.042969 161.070312 C 90.285156 162.226562 90.285156 183.515625 90.042969 185.03125 C 89.375 189.199219 86.445312 192 82.164062 192.539062 C 80.4375 192.75 75.03125 192.75 73.566406 192.523438 C 71.273438 192.179688 69.9375 191.5625 68.441406 190.160156 C 67.171875 189.003906 66.355469 187.601562 65.898438 185.859375 C 65.671875 184.933594 65.640625 183.953125 65.671875 178.289062 L 65.722656 171.773438 L 70.507812 171.722656 C 74.234375 171.691406 75.324219 171.738281 75.441406 171.886719 C 75.503906 172 75.570312 174.425781 75.554688 177.292969 C 75.554688 181.675781 75.585938 182.523438 75.78125 182.734375 C 75.976562 182.914062 76.449219 182.960938 77.945312 182.945312 C 79.703125 182.929688 79.917969 182.894531 80.175781 182.585938 C 80.4375 182.261719 80.453125 181.578125 80.453125 173.367188 L 80.453125 164.507812 L 79.363281 164.019531 C 78.742188 163.742188 77.945312 163.386719 77.570312 163.207031 C 77.179688 163.042969 76.5625 162.765625 76.1875 162.585938 C 75.796875 162.425781 74.871094 162.015625 74.136719 161.691406 C 73.386719 161.347656 72.234375 160.875 71.566406 160.617188 C 68.8125 159.558594 67.007812 158.15625 66.195312 156.445312 L 65.722656 155.484375 L 65.589844 149.132812 C 65.394531 139.507812 65.527344 128.171875 65.851562 127.148438 C 66.859375 123.808594 69.238281 121.558594 72.6875 120.695312 C 73.714844 120.4375 74.429688 120.402344 78.253906 120.453125 C 81.527344 120.5 82.847656 120.566406 83.382812 120.746094 Z M 36.761719 121.152344 C 37.136719 121.234375 37.964844 121.578125 38.632812 121.917969 C 40.457031 122.8125 41.839844 124.230469 42.71875 126.085938 C 43.582031 127.878906 43.632812 128.644531 43.648438 137.945312 C 43.664062 143.417969 43.597656 146.414062 43.5 146.625 C 43.339844 146.917969 43.109375 146.933594 38.632812 146.933594 C 34.90625 146.933594 33.898438 146.886719 33.75 146.722656 C 33.636719 146.558594 33.554688 144.132812 33.539062 138.695312 L 33.488281 130.890625 L 26.976562 130.890625 L 26.832031 156.429688 C 26.703125 180.796875 26.703125 181.984375 26.976562 182.277344 C 27.253906 182.585938 27.5 182.601562 30.25 182.601562 C 33 182.601562 33.230469 182.585938 33.472656 182.246094 C 33.683594 181.933594 33.71875 180.664062 33.636719 171.707031 C 33.570312 166.105469 33.507812 161.480469 33.472656 161.445312 C 33.425781 161.398438 32.644531 161.382812 31.730469 161.414062 C 30.496094 161.445312 30.007812 161.398438 29.875 161.234375 C 29.746094 161.089844 29.746094 160.46875 29.84375 159.148438 C 29.925781 158.125 30.085938 156.089844 30.203125 154.65625 C 30.332031 152.960938 30.476562 151.917969 30.625 151.757812 C 30.820312 151.527344 31.535156 151.496094 37.085938 151.496094 C 42.636719 151.496094 43.339844 151.527344 43.46875 151.757812 C 43.550781 151.902344 43.582031 159.050781 43.550781 168.320312 L 43.484375 184.640625 L 43.0625 185.992188 C 42.589844 187.539062 41.484375 189.25 40.359375 190.160156 C 39.332031 190.992188 37.398438 191.855469 36.011719 192.066406 C 35.246094 192.179688 32.96875 192.210938 29.371094 192.164062 C 24.488281 192.097656 23.804688 192.050781 23.070312 191.773438 C 20.191406 190.679688 18.660156 189.199219 17.519531 186.429688 L 17.046875 185.289062 L 16.949219 157.523438 C 16.886719 141.738281 16.902344 129.296875 16.984375 128.695312 C 17.472656 125.0625 20.222656 122.046875 23.886719 121.121094 C 24.878906 120.859375 35.71875 120.890625 36.761719 121.152344 Z M 57.289062 144.574219 C 58.625 144.914062 59.4375 145.566406 60.074219 146.773438 C 60.578125 147.75 60.609375 147.863281 60.5625 149.363281 L 60.511719 150.925781 L 55.628906 150.925781 L 55.515625 150.128906 C 55.449219 149.6875 55.304688 149.265625 55.1875 149.199219 C 55.074219 149.117188 54.308594 149.050781 53.480469 149.050781 C 52.160156 149.050781 51.949219 149.085938 51.804688 149.363281 C 51.558594 149.835938 51.589844 153.644531 51.851562 153.988281 C 52.03125 154.246094 52.550781 154.28125 56.980469 154.3125 C 61.148438 154.34375 61.929688 154.378906 62.058594 154.589844 C 62.238281 154.882812 62.269531 158.335938 62.089844 158.613281 C 62.027344 158.710938 61.683594 158.824219 61.324219 158.855469 L 60.675781 158.90625 L 60.578125 162.246094 C 60.527344 164.085938 60.414062 165.8125 60.316406 166.089844 C 59.878906 167.390625 59.195312 168.222656 58.070312 168.824219 C 57.453125 169.148438 57.207031 169.167969 53.511719 169.167969 C 49.816406 169.167969 49.574219 169.148438 48.855469 168.792969 C 47.960938 168.367188 47.179688 167.539062 46.707031 166.496094 C 46.398438 165.8125 46.367188 165.453125 46.367188 162.40625 C 46.367188 159.363281 46.398438 159.019531 46.722656 158.304688 C 46.9375 157.878906 47.277344 157.308594 47.503906 157.03125 L 47.929688 156.542969 L 47.425781 155.796875 C 46.691406 154.6875 46.5625 153.757812 46.625 150.519531 C 46.675781 147.78125 46.691406 147.636719 47.132812 146.722656 C 47.667969 145.664062 48.597656 144.914062 49.816406 144.574219 C 50.957031 144.265625 56.085938 144.265625 57.289062 144.574219 Z M 57.289062 144.574219 " clip-rule="nonzero"/></clipPath><linearGradient x1="306.289035" gradientTransform="matrix(0.162785, 0, 0, 0.162868, 3.577907, -138.410517)" y1="2116.033049" x2="308.356707" gradientUnits="userSpaceOnUse" y2="1502.968392" id="0bcfb83d24"><stop stop-opacity="1" stop-color="rgb(14.898682%, 23.498535%, 50.999451%)" offset="0"/><stop stop-opacity="1" stop-color="rgb(14.880371%, 23.623657%, 51.077271%)" offset="0.00337916"/><stop stop-opacity="1" stop-color="rgb(14.862061%, 23.750305%, 51.156616%)" offset="0.03125"/><stop stop-opacity="1" stop-color="rgb(14.837646%, 23.921204%, 51.263428%)" offset="0.046875"/><stop stop-opacity="1" stop-color="rgb(14.787292%, 24.263%, 51.478577%)" offset="0.0625"/><stop stop-opacity="1" stop-color="rgb(14.736938%, 24.606323%, 51.693726%)" offset="0.078125"/><stop stop-opacity="1" stop-color="rgb(14.686584%, 24.94812%, 51.907349%)" offset="0.09375"/><stop stop-opacity="1" stop-color="rgb(14.63623%, 25.291443%, 52.122498%)" offset="0.109375"/><stop stop-opacity="1" stop-color="rgb(14.585876%, 25.63324%, 52.337646%)" offset="0.125"/><stop stop-opacity="1" stop-color="rgb(14.537048%, 25.975037%, 52.552795%)" offset="0.140625"/><stop stop-opacity="1" stop-color="rgb(14.486694%, 26.318359%, 52.767944%)" offset="0.15625"/><stop stop-opacity="1" stop-color="rgb(14.43634%, 26.660156%, 52.981567%)" offset="0.171875"/><stop stop-opacity="1" stop-color="rgb(14.385986%, 27.003479%, 53.196716%)" offset="0.1875"/><stop stop-opacity="1" stop-color="rgb(14.335632%, 27.345276%, 53.411865%)" offset="0.203125"/><stop stop-opacity="1" stop-color="rgb(14.286804%, 27.688599%, 53.627014%)" offset="0.21875"/><stop stop-opacity="1" stop-color="rgb(14.23645%, 28.030396%, 53.842163%)" offset="0.234375"/><stop stop-opacity="1" stop-color="rgb(14.186096%, 28.372192%, 54.055786%)" offset="0.25"/><stop stop-opacity="1" stop-color="rgb(14.135742%, 28.715515%, 54.270935%)" offset="0.265625"/><stop stop-opacity="1" stop-color="rgb(14.085388%, 29.057312%, 54.486084%)" offset="0.28125"/><stop stop-opacity="1" stop-color="rgb(14.035034%, 29.400635%, 54.701233%)" offset="0.296875"/><stop stop-opacity="1" stop-color="rgb(13.986206%, 29.742432%, 54.916382%)" offset="0.3125"/><stop stop-opacity="1" stop-color="rgb(13.935852%, 30.085754%, 55.130005%)" offset="0.328125"/><stop stop-opacity="1" stop-color="rgb(13.885498%, 30.427551%, 55.345154%)" offset="0.34375"/><stop stop-opacity="1" stop-color="rgb(13.835144%, 30.769348%, 55.560303%)" offset="0.359375"/><stop stop-opacity="1" stop-color="rgb(13.78479%, 31.112671%, 55.775452%)" offset="0.375"/><stop stop-opacity="1" stop-color="rgb(13.735962%, 31.454468%, 55.990601%)" offset="0.390625"/><stop stop-opacity="1" stop-color="rgb(13.685608%, 31.797791%, 56.204224%)" offset="0.40625"/><stop stop-opacity="1" stop-color="rgb(13.635254%, 32.139587%, 56.419373%)" offset="0.421875"/><stop stop-opacity="1" stop-color="rgb(13.5849%, 32.48291%, 56.634521%)" offset="0.4375"/><stop stop-opacity="1" stop-color="rgb(13.534546%, 32.824707%, 56.84967%)" offset="0.453125"/><stop stop-opacity="1" stop-color="rgb(13.484192%, 33.16803%, 57.064819%)" offset="0.46875"/><stop stop-opacity="1" stop-color="rgb(13.435364%, 33.509827%, 57.278442%)" offset="0.484375"/><stop stop-opacity="1" stop-color="rgb(13.38501%, 33.851624%, 57.493591%)" offset="0.5"/><stop stop-opacity="1" stop-color="rgb(13.334656%, 34.194946%, 57.70874%)" offset="0.515625"/><stop stop-opacity="1" stop-color="rgb(13.284302%, 34.536743%, 57.923889%)" offset="0.53125"/><stop stop-opacity="1" stop-color="rgb(13.233948%, 34.880066%, 58.139038%)" offset="0.546875"/><stop stop-opacity="1" stop-color="rgb(13.18512%, 35.221863%, 58.352661%)" offset="0.5625"/><stop stop-opacity="1" stop-color="rgb(13.134766%, 35.565186%, 58.56781%)" offset="0.578125"/><stop stop-opacity="1" stop-color="rgb(13.084412%, 35.906982%, 58.782959%)" offset="0.59375"/><stop stop-opacity="1" stop-color="rgb(13.034058%, 36.248779%, 58.998108%)" offset="0.609375"/><stop stop-opacity="1" stop-color="rgb(12.983704%, 36.592102%, 59.213257%)" offset="0.625"/><stop stop-opacity="1" stop-color="rgb(12.93335%, 36.933899%, 59.42688%)" offset="0.640625"/><stop stop-opacity="1" stop-color="rgb(12.884521%, 37.277222%, 59.642029%)" offset="0.65625"/><stop stop-opacity="1" stop-color="rgb(12.834167%, 37.619019%, 59.857178%)" offset="0.671875"/><stop stop-opacity="1" stop-color="rgb(12.783813%, 37.962341%, 60.072327%)" offset="0.6875"/><stop stop-opacity="1" stop-color="rgb(12.733459%, 38.304138%, 60.287476%)" offset="0.703125"/><stop stop-opacity="1" stop-color="rgb(12.683105%, 38.645935%, 60.501099%)" offset="0.71875"/><stop stop-opacity="1" stop-color="rgb(12.634277%, 38.989258%, 60.716248%)" offset="0.734375"/><stop stop-opacity="1" stop-color="rgb(12.583923%, 39.331055%, 60.931396%)" offset="0.75"/><stop stop-opacity="1" stop-color="rgb(12.533569%, 39.674377%, 61.146545%)" offset="0.765625"/><stop stop-opacity="1" stop-color="rgb(12.483215%, 40.016174%, 61.361694%)" offset="0.78125"/><stop stop-opacity="1" stop-color="rgb(12.432861%, 40.359497%, 61.575317%)" offset="0.796875"/><stop stop-opacity="1" stop-color="rgb(12.382507%, 40.701294%, 61.790466%)" offset="0.8125"/><stop stop-opacity="1" stop-color="rgb(12.333679%, 41.043091%, 62.005615%)" offset="0.828125"/><stop stop-opacity="1" stop-color="rgb(12.283325%, 41.386414%, 62.220764%)" offset="0.84375"/><stop stop-opacity="1" stop-color="rgb(12.232971%, 41.72821%, 62.435913%)" offset="0.859375"/><stop stop-opacity="1" stop-color="rgb(12.182617%, 42.071533%, 62.649536%)" offset="0.875"/><stop stop-opacity="1" stop-color="rgb(12.132263%, 42.41333%, 62.864685%)" offset="0.890625"/><stop stop-opacity="1" stop-color="rgb(12.083435%, 42.756653%, 63.079834%)" offset="0.90625"/><stop stop-opacity="1" stop-color="rgb(12.033081%, 43.09845%, 63.294983%)" offset="0.921875"/><stop stop-opacity="1" stop-color="rgb(11.982727%, 43.441772%, 63.510132%)" offset="0.9375"/><stop stop-opacity="1" stop-color="rgb(11.932373%, 43.783569%, 63.723755%)" offset="0.953125"/><stop stop-opacity="1" stop-color="rgb(11.882019%, 44.125366%, 63.938904%)" offset="0.96875"/><stop stop-opacity="1" stop-color="rgb(11.831665%, 44.468689%, 64.154053%)" offset="0.984375"/><stop stop-opacity="1" stop-color="rgb(11.802673%, 44.668579%, 64.280701%)" offset="0.996621"/><stop stop-opacity="1" stop-color="rgb(11.799622%, 44.699097%, 64.299011%)" offset="1"/></linearGradient><clipPath id="5ee1336e0a"><path d="M 353 169 L 368.828125 169 L 368.828125 194 L 353 194 Z M 353 169 " clip-rule="nonzero"/></clipPath><clipPath id="afbe8a65c8"><path d="M 201 198 L 213 198 L 213 213.035156 L 201 213.035156 Z M 201 198 " clip-rule="nonzero"/></clipPath><clipPath id="3fdd80ac44"><path d="M 214 198 L 225 198 L 225 213.035156 L 214 213.035156 Z M 214 198 " clip-rule="nonzero"/></clipPath></defs><g clip-path="url(#25ca9823c2)"><path fill="#ffffff" d="M 10.316406 114.792969 L 96.292969 114.792969 L 96.292969 200.097656 L 10.316406 200.097656 Z M 10.316406 114.792969 " fill-opacity="1" fill-rule="nonzero"/></g><g clip-path="url(#b4b57323c9)"><g clip-path="url(#25b2c4e6d1)"><path fill="url(#0bcfb83d24)" d="M 3.578125 106.542969 L 3.578125 206.054688 L 103.570312 206.054688 L 103.570312 106.542969 Z M 3.578125 106.542969 " fill-rule="nonzero"/></g></g><path fill="#1b4a8d" d="M 51.738281 159.183594 C 51.527344 159.476562 51.476562 160.03125 51.476562 161.855469 C 51.476562 163.125 51.527344 164.28125 51.574219 164.425781 C 51.65625 164.640625 51.980469 164.6875 53.511719 164.6875 C 54.816406 164.6875 55.402344 164.621094 55.515625 164.476562 C 55.660156 164.3125 55.792969 160.8125 55.710938 159.019531 C 55.710938 158.875 55.222656 158.824219 53.855469 158.824219 C 52.113281 158.824219 51.964844 158.839844 51.738281 159.183594 Z M 51.738281 159.183594 " fill-opacity="1" fill-rule="nonzero"/><path fill="#0f3486" d="M 133.03125 133.90625 L 133.03125 149.539062 L 137.917969 149.539062 L 137.917969 118.269531 L 133.03125 118.269531 Z M 133.03125 133.90625 " fill-opacity="1" fill-rule="nonzero"/><path fill="#0f3486" d="M 156.71875 126.007812 C 154.8125 126.347656 152.078125 127.457031 150.742188 128.402344 L 150.289062 128.710938 L 150.289062 126.25 L 145.894531 126.25 L 145.894531 149.539062 L 150.777344 149.539062 L 150.777344 131.871094 L 151.640625 131.363281 C 152.957031 130.566406 154.78125 129.980469 156.179688 129.882812 C 158.492188 129.71875 159.582031 130.324219 160.136719 132.066406 C 160.414062 132.910156 160.445312 133.808594 160.496094 141.265625 L 160.558594 149.539062 L 165.460938 149.539062 L 165.378906 140.859375 C 165.296875 131.542969 165.230469 130.777344 164.402344 128.953125 C 163.605469 127.210938 162.300781 126.265625 160.203125 125.941406 C 158.898438 125.730469 158.152344 125.730469 156.71875 126.007812 Z M 156.71875 126.007812 " fill-opacity="1" fill-rule="nonzero"/><path fill="#0f3486" d="M 226.863281 125.988281 C 225.59375 126.285156 224.128906 127.03125 223.003906 127.945312 C 222.515625 128.351562 222.058594 128.628906 222.011719 128.578125 C 221.960938 128.515625 221.914062 128.253906 221.914062 127.976562 C 221.914062 127.699219 221.863281 127.195312 221.816406 126.851562 L 221.703125 126.25 L 217.679688 126.25 L 217.679688 149.539062 L 222.402344 149.539062 L 222.402344 132.113281 L 223.183594 131.558594 C 224.4375 130.632812 225.527344 130.289062 227.367188 130.191406 C 228.847656 130.128906 229.566406 130.226562 230.425781 130.566406 C 230.6875 130.679688 230.703125 130.519531 230.703125 128.402344 C 230.703125 126.429688 230.671875 126.105469 230.445312 126.023438 C 229.839844 125.792969 227.824219 125.777344 226.863281 125.988281 Z M 226.863281 125.988281 " fill-opacity="1" fill-rule="nonzero"/><path fill="#0f3486" d="M 240.128906 125.925781 C 238.144531 126.234375 235.3125 127.097656 233.992188 127.78125 L 233.488281 128.042969 L 234.058594 129.734375 L 234.628906 131.414062 L 235.605469 131.023438 C 237.703125 130.175781 238.941406 129.949219 241.449219 129.929688 C 243.679688 129.914062 243.839844 129.929688 244.523438 130.324219 C 245.617188 130.941406 245.84375 131.527344 245.84375 133.597656 L 245.84375 135.324219 L 244.019531 135.4375 C 239.285156 135.746094 236.175781 136.738281 234.351562 138.5625 C 233.128906 139.800781 232.640625 140.910156 232.527344 142.683594 C 232.300781 146.773438 234.902344 149.574219 239.183594 149.835938 C 241.398438 149.964844 244.019531 149.199219 245.648438 147.976562 L 246.167969 147.570312 L 246.167969 149.539062 L 250.742188 149.539062 L 250.695312 140.207031 C 250.644531 131.96875 250.597656 130.792969 250.351562 130.078125 C 249.683594 128.058594 248.300781 126.804688 246.085938 126.25 C 244.589844 125.875 241.53125 125.695312 240.128906 125.925781 Z M 245.84375 141.558594 L 245.84375 144.816406 L 245.324219 145.144531 C 243.988281 145.957031 243.074219 146.1875 241.1875 146.203125 C 239.480469 146.203125 239.347656 146.1875 238.695312 145.746094 C 237.785156 145.128906 237.394531 144.265625 237.378906 142.816406 C 237.378906 141.167969 237.898438 140.421875 239.675781 139.507812 C 240.8125 138.9375 243.289062 138.417969 245.402344 138.320312 L 245.84375 138.304688 Z M 245.84375 141.558594 " fill-opacity="1" fill-rule="nonzero"/><path fill="#0f3486" d="M 268.390625 126.007812 C 266.484375 126.347656 263.75 127.457031 262.414062 128.402344 L 261.960938 128.710938 L 261.960938 126.25 L 257.5625 126.25 L 257.5625 149.539062 L 262.449219 149.539062 L 262.449219 131.871094 L 263.308594 131.363281 C 264.628906 130.566406 266.453125 129.980469 267.851562 129.882812 C 270.164062 129.71875 271.253906 130.324219 271.808594 132.066406 C 272.085938 132.910156 272.117188 133.808594 272.164062 141.265625 L 272.230469 149.539062 L 277.128906 149.539062 L 277.050781 140.859375 C 276.96875 131.542969 276.902344 130.777344 276.074219 128.953125 C 275.273438 127.210938 273.972656 126.265625 271.871094 125.941406 C 270.570312 125.730469 269.820312 125.730469 268.390625 126.007812 Z M 268.390625 126.007812 " fill-opacity="1" fill-rule="nonzero"/><path fill="#0f3486" d="M 176.398438 126.21875 C 173.972656 126.835938 172.425781 127.910156 171.613281 129.558594 C 170.652344 131.511719 170.832031 133.871094 172.070312 135.695312 C 172.996094 137.066406 174.332031 138.011719 177.390625 139.523438 C 181.59375 141.59375 182.277344 142.195312 182.144531 143.808594 C 182.082031 144.816406 181.65625 145.355469 180.597656 145.828125 C 178.777344 146.65625 175.0625 146.203125 171.757812 144.753906 C 171.546875 144.65625 171.449219 144.933594 171.191406 146.429688 L 170.863281 148.222656 L 171.777344 148.628906 C 173.617188 149.460938 175.355469 149.769531 178.207031 149.769531 C 180.289062 149.785156 181.007812 149.71875 181.789062 149.492188 C 183.984375 148.808594 185.449219 147.699219 186.214844 146.136719 C 186.636719 145.304688 186.671875 145.0625 186.671875 143.351562 C 186.671875 141.640625 186.621094 141.398438 186.296875 140.792969 C 185.402344 139.117188 184.148438 138.15625 179.996094 135.992188 C 178.386719 135.144531 176.824219 134.28125 176.546875 134.070312 C 175.878906 133.578125 175.519531 132.832031 175.519531 131.886719 C 175.519531 130.890625 176.203125 130.09375 177.359375 129.753906 C 179.199219 129.199219 183.332031 129.621094 184.488281 130.484375 L 184.929688 130.792969 L 185.269531 128.96875 C 185.464844 127.878906 185.546875 127.097656 185.464844 127.015625 C 185.386719 126.933594 184.703125 126.675781 183.953125 126.445312 C 182.097656 125.890625 178.15625 125.777344 176.398438 126.21875 Z M 176.398438 126.21875 " fill-opacity="1" fill-rule="nonzero"/><path fill="#0f3486" d="M 290.285156 126.1875 C 288.558594 126.542969 286.703125 127.570312 285.433594 128.839844 C 282.941406 131.332031 281.671875 135.5 282.128906 139.703125 C 282.46875 142.929688 283.464844 145.175781 285.398438 147.097656 C 287.5 149.214844 289.648438 149.964844 293.050781 149.816406 C 295.625 149.6875 297.96875 148.988281 299.203125 147.976562 L 299.5625 147.667969 L 299.105469 146.285156 L 298.667969 144.898438 L 297.738281 145.273438 C 295.980469 145.957031 294.890625 146.152344 293.132812 146.089844 C 291.765625 146.039062 291.359375 145.957031 290.59375 145.582031 C 287.648438 144.148438 286.132812 139.980469 286.929688 135.5 C 287.386719 133.027344 288.625 131.25 290.578125 130.289062 C 291.519531 129.816406 291.832031 129.753906 293.277344 129.703125 C 295.070312 129.636719 296.648438 129.914062 297.773438 130.484375 L 298.421875 130.8125 L 298.503906 130.453125 C 298.554688 130.242188 298.730469 129.394531 298.894531 128.546875 L 299.203125 127.03125 L 298.488281 126.707031 C 298.082031 126.542969 297.265625 126.285156 296.664062 126.167969 C 295.28125 125.859375 291.683594 125.875 290.285156 126.1875 Z M 290.285156 126.1875 " fill-opacity="1" fill-rule="nonzero"/><path fill="#0f3486" d="M 310.519531 126.25 C 307.050781 127.164062 304.59375 129.734375 303.453125 133.613281 C 303.03125 135.09375 302.851562 138.921875 303.128906 140.730469 C 303.566406 143.515625 304.871094 146.136719 306.53125 147.585938 C 309.054688 149.769531 313.335938 150.4375 317.714844 149.3125 C 319.453125 148.855469 321.375 148.011719 321.375 147.699219 C 321.375 147.585938 321.195312 146.953125 320.953125 146.25 L 320.546875 145.011719 L 319.699219 145.304688 C 317.0625 146.234375 313.789062 146.445312 311.933594 145.796875 C 310.289062 145.242188 309.28125 144.378906 308.53125 142.878906 C 308.140625 142.128906 307.703125 140.339844 307.703125 139.476562 L 307.703125 138.953125 L 322.011719 138.953125 L 322.125 138.222656 C 322.304688 136.984375 322.09375 132.617188 321.800781 131.738281 C 320.871094 128.890625 318.964844 127 316.183594 126.1875 C 314.929688 125.8125 312.046875 125.84375 310.519531 126.25 Z M 315.042969 129.589844 C 315.972656 129.914062 316.703125 130.648438 317.144531 131.65625 C 317.519531 132.519531 317.84375 134.851562 317.695312 135.484375 L 317.597656 135.859375 L 307.816406 135.859375 L 307.914062 134.996094 C 308.238281 132.34375 309.621094 130.273438 311.558594 129.574219 C 312.390625 129.28125 314.179688 129.296875 315.042969 129.589844 Z M 315.042969 129.589844 " fill-opacity="1" fill-rule="nonzero"/><path fill="#0f3486" d="M 191.992188 134.914062 C 192.058594 143.417969 192.074219 143.808594 192.417969 145.046875 C 192.890625 146.773438 193.539062 147.863281 194.484375 148.578125 C 195.542969 149.394531 196.632812 149.71875 198.554688 149.816406 C 200.929688 149.933594 202.933594 149.363281 206.335938 147.617188 C 206.402344 147.585938 206.449219 147.816406 206.449219 148.140625 C 206.449219 149.539062 207.003906 149.867188 209.3125 149.867188 L 210.84375 149.867188 L 210.84375 126.085938 L 205.960938 126.085938 L 205.929688 135.242188 L 205.878906 144.394531 L 204.933594 144.851562 C 203.390625 145.617188 201.679688 145.992188 200.296875 145.894531 C 198.230469 145.730469 197.578125 145.242188 197.074219 143.417969 C 196.84375 142.601562 196.78125 141.25 196.730469 134.265625 L 196.648438 126.085938 L 191.945312 126.085938 Z M 191.992188 134.914062 " fill-opacity="1" fill-rule="nonzero"/><path fill="#0f3486" d="M 256.75 175.925781 L 256.75 193.027344 L 261.632812 193.027344 L 261.632812 158.824219 L 256.75 158.824219 Z M 256.75 175.925781 " fill-opacity="1" fill-rule="nonzero"/><path fill="#0f3486" d="M 143.597656 161.59375 C 136.746094 162.40625 131.878906 167.472656 130.917969 174.800781 C 130.070312 181.382812 132.300781 187.539062 136.710938 190.679688 C 139.089844 192.375 141.5625 193.171875 144.917969 193.304688 C 147.519531 193.402344 149.359375 193.140625 151.738281 192.308594 L 153.300781 191.773438 L 153.347656 189.605469 C 153.398438 187.488281 153.382812 187.441406 153.089844 187.699219 C 152.128906 188.5625 148.496094 189.445312 145.859375 189.445312 C 142.847656 189.445312 141.140625 188.757812 139.121094 186.757812 C 138.046875 185.699219 137.671875 185.191406 137.152344 184.070312 C 136.011719 181.675781 135.507812 178.890625 135.703125 176.136719 C 136.078125 171.039062 138.273438 167.554688 142.082031 166.039062 C 143.160156 165.601562 143.335938 165.582031 146.054688 165.582031 C 148.546875 165.582031 149.066406 165.632812 150.207031 165.957031 C 150.921875 166.167969 151.820312 166.511719 152.210938 166.722656 C 152.582031 166.933594 152.894531 167.066406 152.894531 167 C 152.894531 166.953125 153.039062 165.957031 153.234375 164.800781 C 153.414062 163.644531 153.542969 162.683594 153.511719 162.652344 C 153.316406 162.457031 149.328125 161.722656 147.75 161.59375 C 145.582031 161.414062 145.144531 161.414062 143.597656 161.59375 Z M 143.597656 161.59375 " fill-opacity="1" fill-rule="nonzero"/><path fill="#0f3486" d="M 271.238281 166.1875 C 270.40625 168.90625 270.082031 169.476562 269.15625 169.867188 C 268.730469 170.046875 268.03125 170.289062 267.609375 170.386719 L 266.84375 170.582031 L 266.84375 173.15625 L 269.917969 173.15625 L 269.96875 181.332031 C 270.015625 187.210938 270.082031 189.6875 270.230469 190.113281 C 270.523438 190.992188 271.253906 192 271.9375 192.457031 C 273.875 193.777344 277.734375 193.582031 280.972656 192.015625 C 281.527344 191.738281 281.980469 191.445312 281.980469 191.367188 C 281.980469 191.234375 281.3125 188.792969 281.25 188.679688 C 281.234375 188.644531 280.875 188.777344 280.417969 188.9375 C 279.214844 189.394531 277.292969 189.65625 276.445312 189.460938 C 275.585938 189.265625 275.175781 188.875 274.949219 188.042969 C 274.867188 187.683594 274.753906 184.214844 274.707031 180.273438 L 274.609375 173.15625 L 281.332031 173.15625 L 281.332031 169.574219 L 274.65625 169.574219 L 274.65625 164.363281 L 271.808594 164.363281 Z M 271.238281 166.1875 " fill-opacity="1" fill-rule="nonzero"/><path fill="#0f3486" d="M 338.957031 166.1875 C 338.125 168.90625 337.800781 169.476562 336.875 169.867188 C 336.449219 170.046875 335.75 170.289062 335.328125 170.386719 L 334.5625 170.582031 L 334.5625 173.15625 L 337.636719 173.15625 L 337.6875 181.332031 C 337.734375 187.210938 337.800781 189.6875 337.949219 190.113281 C 338.242188 190.992188 338.972656 192 339.65625 192.457031 C 341.59375 193.777344 345.453125 193.582031 348.691406 192.015625 C 349.246094 191.738281 349.699219 191.445312 349.699219 191.367188 C 349.699219 191.234375 349.03125 188.792969 348.96875 188.679688 C 348.953125 188.644531 348.59375 188.777344 348.136719 188.9375 C 346.933594 189.394531 345.011719 189.65625 344.164062 189.460938 C 343.304688 189.265625 342.894531 188.875 342.667969 188.042969 C 342.585938 187.683594 342.472656 184.214844 342.425781 180.273438 L 342.328125 173.15625 L 349.050781 173.15625 L 349.050781 169.574219 L 342.375 169.574219 L 342.375 164.363281 L 339.527344 164.363281 Z M 338.957031 166.1875 " fill-opacity="1" fill-rule="nonzero"/><path fill="#0f3486" d="M 195.296875 169.492188 C 193.394531 169.835938 190.660156 170.941406 189.324219 171.886719 L 188.867188 172.195312 L 188.867188 169.738281 L 184.472656 169.738281 L 184.472656 193.027344 L 189.355469 193.027344 L 189.355469 175.355469 L 190.21875 174.851562 C 191.539062 174.050781 193.363281 173.464844 194.761719 173.367188 C 197.074219 173.207031 198.164062 173.808594 198.71875 175.550781 C 198.992188 176.398438 199.027344 177.292969 199.074219 184.753906 L 199.140625 193.027344 L 204.039062 193.027344 L 203.957031 184.347656 C 203.878906 175.03125 203.8125 174.265625 202.980469 172.441406 C 202.183594 170.699219 200.882812 169.753906 198.78125 169.425781 C 197.480469 169.214844 196.730469 169.214844 195.296875 169.492188 Z M 195.296875 169.492188 " fill-opacity="1" fill-rule="nonzero"/><path fill="#0f3486" d="M 292.710938 169.410156 C 290.722656 169.71875 287.890625 170.582031 286.574219 171.269531 L 286.066406 171.527344 L 286.636719 173.222656 L 287.207031 174.898438 L 288.183594 174.507812 C 290.285156 173.660156 291.519531 173.433594 294.027344 173.417969 C 296.257812 173.402344 296.421875 173.417969 297.105469 173.808594 C 298.195312 174.425781 298.421875 175.011719 298.421875 177.082031 L 298.421875 178.808594 L 296.601562 178.921875 C 291.863281 179.230469 288.753906 180.226562 286.929688 182.050781 C 285.710938 183.289062 285.222656 184.394531 285.105469 186.171875 C 284.878906 190.257812 287.484375 193.058594 291.765625 193.320312 C 293.980469 193.449219 296.601562 192.683594 298.226562 191.464844 L 298.75 191.054688 L 298.75 193.027344 L 303.324219 193.027344 L 303.273438 183.695312 C 303.226562 175.453125 303.175781 174.28125 302.933594 173.5625 C 302.265625 171.542969 300.882812 170.289062 298.667969 169.738281 C 297.167969 169.363281 294.109375 169.183594 292.710938 169.410156 Z M 298.421875 185.046875 L 298.421875 188.304688 L 297.902344 188.628906 C 296.566406 189.445312 295.65625 189.671875 293.765625 189.6875 C 292.058594 189.6875 291.929688 189.671875 291.277344 189.230469 C 290.367188 188.613281 289.972656 187.75 289.957031 186.300781 C 289.957031 184.65625 290.480469 183.90625 292.253906 182.992188 C 293.394531 182.425781 295.867188 181.902344 297.984375 181.804688 L 298.421875 181.789062 Z M 298.421875 185.046875 " fill-opacity="1" fill-rule="nonzero"/><path fill="#0f3486" d="M 320.96875 169.492188 C 319.0625 169.835938 316.328125 170.941406 314.996094 171.886719 L 314.539062 172.195312 L 314.539062 169.738281 L 310.144531 169.738281 L 310.144531 193.027344 L 315.027344 193.027344 L 315.027344 175.355469 L 315.890625 174.851562 C 317.207031 174.050781 319.03125 173.464844 320.433594 173.367188 C 322.742188 173.207031 323.832031 173.808594 324.386719 175.550781 C 324.664062 176.398438 324.695312 177.292969 324.746094 184.753906 L 324.8125 193.027344 L 329.710938 193.027344 L 329.628906 184.347656 C 329.546875 175.03125 329.484375 174.265625 328.652344 172.441406 C 327.855469 170.699219 326.550781 169.753906 324.453125 169.425781 C 323.148438 169.214844 322.402344 169.214844 320.96875 169.492188 Z M 320.96875 169.492188 " fill-opacity="1" fill-rule="nonzero"/><path fill="#0f3486" d="M 165.996094 169.574219 C 162.023438 170.421875 159.175781 173.140625 158.070312 177.210938 C 157.777344 178.253906 157.710938 178.890625 157.726562 181.21875 C 157.726562 183.679688 157.777344 184.167969 158.152344 185.566406 C 158.378906 186.445312 158.851562 187.683594 159.175781 188.335938 C 159.992188 189.917969 161.714844 191.640625 163.148438 192.328125 C 166.273438 193.839844 170.863281 193.628906 173.859375 191.835938 C 175.179688 191.054688 176.855469 189.199219 177.539062 187.78125 C 178.53125 185.679688 178.695312 184.835938 178.695312 181.464844 C 178.695312 178.824219 178.644531 178.269531 178.320312 177.066406 C 177.734375 174.898438 176.921875 173.417969 175.601562 172.082031 C 173.679688 170.128906 172.214844 169.558594 168.925781 169.476562 C 167.675781 169.445312 166.355469 169.492188 165.996094 169.574219 Z M 170.425781 173.289062 C 171.808594 174.003906 172.914062 175.566406 173.484375 177.652344 C 173.910156 179.152344 173.988281 182.878906 173.664062 184.574219 C 172.933594 188.238281 170.898438 190.113281 167.886719 189.898438 C 166.566406 189.800781 165.71875 189.394531 164.792969 188.386719 C 163.328125 186.789062 162.628906 184.378906 162.628906 180.894531 C 162.628906 176.691406 163.816406 174.101562 166.175781 173.15625 C 167.265625 172.699219 169.433594 172.78125 170.425781 173.289062 Z M 170.425781 173.289062 " fill-opacity="1" fill-rule="nonzero"/><path fill="#0f3486" d="M 214.980469 169.703125 C 212.554688 170.324219 211.007812 171.398438 210.195312 173.042969 C 209.234375 174.996094 209.410156 177.359375 210.648438 179.183594 C 211.578125 180.550781 212.910156 181.496094 215.972656 183.011719 C 220.171875 185.078125 220.855469 185.679688 220.726562 187.292969 C 220.660156 188.304688 220.238281 188.839844 219.179688 189.3125 C 217.355469 190.144531 213.644531 189.6875 210.339844 188.238281 C 210.128906 188.140625 210.03125 188.417969 209.769531 189.917969 L 209.445312 191.707031 L 210.355469 192.113281 C 212.195312 192.945312 213.9375 193.253906 216.785156 193.253906 C 218.871094 193.269531 219.585938 193.207031 220.367188 192.976562 C 222.566406 192.292969 224.03125 191.1875 224.796875 189.621094 C 225.21875 188.792969 225.25 188.546875 225.25 186.835938 C 225.25 185.128906 225.203125 184.882812 224.875 184.28125 C 223.980469 182.601562 222.726562 181.640625 218.578125 179.476562 C 216.964844 178.628906 215.402344 177.765625 215.125 177.554688 C 214.457031 177.066406 214.101562 176.316406 214.101562 175.371094 C 214.101562 174.378906 214.785156 173.582031 215.941406 173.238281 C 217.777344 172.683594 221.914062 173.109375 223.070312 173.972656 L 223.507812 174.28125 L 223.851562 172.457031 C 224.046875 171.367188 224.128906 170.582031 224.046875 170.503906 C 223.964844 170.421875 223.28125 170.160156 222.53125 169.933594 C 220.675781 169.378906 216.738281 169.265625 214.980469 169.703125 Z M 214.980469 169.703125 " fill-opacity="1" fill-rule="nonzero"/><g clip-path="url(#5ee1336e0a)"><path fill="#0f3486" d="M 358.554688 169.703125 C 356.128906 170.324219 354.585938 171.398438 353.769531 173.042969 C 352.808594 174.996094 352.988281 177.359375 354.226562 179.183594 C 355.152344 180.550781 356.488281 181.496094 359.550781 183.011719 C 363.75 185.078125 364.433594 185.679688 364.300781 187.292969 C 364.238281 188.304688 363.8125 188.839844 362.757812 189.3125 C 360.933594 190.144531 357.222656 189.6875 353.917969 188.238281 C 353.707031 188.140625 353.609375 188.417969 353.347656 189.917969 L 353.019531 191.707031 L 353.933594 192.113281 C 355.773438 192.945312 357.515625 193.253906 360.363281 193.253906 C 362.445312 193.269531 363.164062 193.207031 363.945312 192.976562 C 366.140625 192.292969 367.605469 191.1875 368.371094 189.621094 C 368.796875 188.792969 368.828125 188.546875 368.828125 186.835938 C 368.828125 185.128906 368.777344 184.882812 368.453125 184.28125 C 367.558594 182.601562 366.304688 181.640625 362.152344 179.476562 C 360.542969 178.628906 358.980469 177.765625 358.703125 177.554688 C 358.035156 177.066406 357.675781 176.316406 357.675781 175.371094 C 357.675781 174.378906 358.359375 173.582031 359.515625 173.238281 C 361.355469 172.683594 365.492188 173.109375 366.648438 173.972656 L 367.085938 174.28125 L 367.429688 172.457031 C 367.625 171.367188 367.703125 170.582031 367.625 170.503906 C 367.542969 170.421875 366.859375 170.160156 366.109375 169.933594 C 364.253906 169.378906 360.3125 169.265625 358.554688 169.703125 Z M 358.554688 169.703125 " fill-opacity="1" fill-rule="nonzero"/></g><path fill="#0f3486" d="M 230.574219 178.402344 C 230.640625 186.902344 230.65625 187.292969 230.996094 188.53125 C 231.46875 190.257812 232.121094 191.347656 233.066406 192.066406 C 234.121094 192.878906 235.214844 193.207031 237.132812 193.304688 C 239.511719 193.417969 241.511719 192.847656 244.914062 191.105469 C 244.980469 191.074219 245.03125 191.300781 245.03125 191.625 C 245.03125 193.027344 245.582031 193.351562 247.894531 193.351562 L 249.425781 193.351562 L 249.425781 169.574219 L 244.542969 169.574219 L 244.507812 178.726562 L 244.460938 187.878906 L 243.515625 188.335938 C 241.96875 189.101562 240.261719 189.476562 238.875 189.378906 C 236.808594 189.214844 236.15625 188.726562 235.652344 186.902344 C 235.425781 186.089844 235.359375 184.738281 235.3125 177.75 L 235.230469 169.574219 L 230.523438 169.574219 Z M 230.574219 178.402344 " fill-opacity="1" fill-rule="nonzero"/><path fill="#0f3486" d="M 145.25 199.09375 C 144.191406 199.339844 143.703125 199.582031 143.085938 200.167969 C 142.335938 200.851562 142.09375 201.457031 142.09375 202.644531 C 142.09375 204.535156 143.035156 205.65625 145.851562 207.089844 C 147.804688 208.101562 148.179688 208.457031 148.179688 209.304688 C 148.179688 210.105469 147.789062 210.542969 146.941406 210.707031 C 146.082031 210.867188 144.453125 210.671875 143.460938 210.300781 C 142.972656 210.121094 142.5625 209.972656 142.5625 210.003906 C 142.449219 210.152344 142.15625 212.105469 142.222656 212.222656 C 142.433594 212.546875 144.421875 212.9375 145.984375 212.953125 C 147.953125 212.96875 148.914062 212.726562 149.824219 211.945312 C 150.6875 211.195312 151.109375 210.300781 151.109375 209.144531 C 151.109375 207.300781 150.34375 206.421875 147.351562 204.828125 C 145.414062 203.785156 144.875 203.28125 144.875 202.464844 C 144.875 201.554688 145.378906 201.242188 147.007812 201.195312 C 148.246094 201.144531 148.523438 201.195312 149.207031 201.535156 L 149.972656 201.925781 L 150.070312 201.503906 C 150.117188 201.277344 150.230469 200.804688 150.3125 200.460938 C 150.410156 200.136719 150.425781 199.792969 150.378906 199.710938 C 150.035156 199.125 146.765625 198.734375 145.25 199.09375 Z M 145.25 199.09375 " fill-opacity="1" fill-rule="nonzero"/><path fill="#0f3486" d="M 155.230469 198.996094 L 153.390625 199.0625 L 153.390625 212.886719 L 156.15625 212.886719 L 156.15625 208.703125 L 157.832031 208.605469 C 159.785156 208.492188 160.421875 208.328125 161.367188 207.691406 C 162.75 206.765625 163.449219 205.039062 163.269531 203.003906 C 163.042969 200.691406 161.953125 199.484375 159.65625 199.0625 C 159.136719 198.964844 158.339844 198.898438 157.882812 198.914062 C 157.425781 198.929688 156.222656 198.980469 155.230469 198.996094 Z M 159.25 201.292969 C 160.03125 201.683594 160.390625 202.449219 160.390625 203.769531 C 160.390625 204.941406 160.0625 205.65625 159.347656 206.128906 C 158.890625 206.4375 157.230469 206.632812 156.578125 206.472656 L 156.15625 206.375 L 156.15625 203.785156 C 156.15625 202.367188 156.207031 201.160156 156.269531 201.113281 C 156.5 200.867188 158.679688 201 159.25 201.292969 Z M 159.25 201.292969 " fill-opacity="1" fill-rule="nonzero"/><path fill="#0f3486" d="M 171.328125 199.371094 C 170.9375 199.632812 170.140625 200.039062 169.539062 200.28125 C 168.933594 200.527344 168.382812 200.789062 168.316406 200.851562 C 168.234375 200.902344 168.234375 201.308594 168.300781 201.730469 C 168.414062 202.578125 168.332031 202.5625 169.960938 202.203125 L 170.480469 202.089844 L 170.480469 212.886719 L 173.410156 212.886719 L 173.410156 199.042969 L 172.941406 199.042969 C 172.679688 199.042969 172.371094 199.011719 172.238281 198.980469 C 172.125 198.929688 171.71875 199.109375 171.328125 199.371094 Z M 171.328125 199.371094 " fill-opacity="1" fill-rule="nonzero"/><path fill="#0f3486" d="M 181.144531 199.027344 C 181.09375 199.125 180.070312 201.40625 178.847656 204.125 L 176.652344 209.0625 L 176.945312 209.582031 L 177.238281 210.121094 L 183.34375 210.121094 L 183.34375 212.886719 L 185.945312 212.886719 L 185.945312 210.121094 L 188.0625 210.121094 L 188.0625 208.164062 L 185.945312 208.164062 L 185.945312 204.09375 L 183.539062 204.09375 L 183.421875 206.128906 L 183.308594 208.164062 L 179.597656 208.164062 L 180.019531 207.480469 C 180.527344 206.683594 184.027344 199.988281 183.960938 199.941406 C 182.804688 199.125 181.371094 198.671875 181.144531 199.027344 Z M 181.144531 199.027344 " fill-opacity="1" fill-rule="nonzero"/><path fill="#0f3486" d="M 193.222656 199.0625 C 192.246094 199.207031 190.570312 199.988281 190.082031 200.527344 C 189.898438 200.734375 190.085938 201.265625 190.652344 202.121094 C 190.765625 202.300781 190.878906 202.285156 191.253906 201.992188 C 191.515625 201.8125 192.179688 201.535156 192.734375 201.40625 C 194.003906 201.082031 194.851562 201.261719 195.453125 201.992188 C 195.8125 202.417969 195.875 202.644531 195.875 203.574219 C 195.875 204.90625 195.304688 206.210938 194.054688 207.789062 C 193.207031 208.867188 191.480469 210.445312 190.359375 211.179688 C 189.738281 211.585938 189.738281 211.601562 189.917969 212.238281 L 190.082031 212.886719 L 199.292969 212.886719 L 199.292969 210.574219 L 196.496094 210.707031 L 193.679688 210.820312 L 194.933594 209.808594 C 197.339844 207.871094 198.660156 205.753906 198.773438 203.636719 C 198.871094 201.992188 198.59375 201.113281 197.683594 200.167969 C 196.675781 199.140625 195.191406 198.769531 193.222656 199.0625 Z M 193.222656 199.0625 " fill-opacity="1" fill-rule="nonzero"/><g clip-path="url(#afbe8a65c8)"><path fill="#0f3486" d="M 205.414062 199.140625 C 203.203125 199.84375 201.785156 201.75 201.378906 204.550781 C 201.054688 206.828125 201.605469 209.535156 202.714844 211.082031 C 204.472656 213.507812 208.152344 213.703125 210.21875 211.472656 C 211.519531 210.085938 211.992188 208.769531 212.105469 206.292969 C 212.269531 202.757812 211.128906 200.203125 208.964844 199.289062 C 208.054688 198.914062 206.359375 198.832031 205.414062 199.140625 Z M 207.824219 201.503906 C 208.816406 202.285156 209.355469 204.5 209.144531 206.910156 C 208.949219 209.289062 208.394531 210.460938 207.351562 210.753906 C 205.449219 211.277344 204.339844 209.402344 204.339844 205.722656 C 204.339844 203.605469 204.652344 202.449219 205.398438 201.699219 C 205.839844 201.261719 206.050781 201.160156 206.667969 201.160156 C 207.15625 201.160156 207.53125 201.277344 207.824219 201.503906 Z M 207.824219 201.503906 " fill-opacity="1" fill-rule="nonzero"/></g><g clip-path="url(#3fdd80ac44)"><path fill="#0f3486" d="M 218.277344 199.140625 C 216.0625 199.84375 214.644531 201.75 214.238281 204.550781 C 213.914062 206.828125 214.464844 209.535156 215.574219 211.082031 C 217.332031 213.507812 221.011719 213.703125 223.078125 211.472656 C 224.378906 210.085938 224.851562 208.769531 224.964844 206.292969 C 225.128906 202.757812 223.988281 200.203125 221.824219 199.289062 C 220.914062 198.914062 219.21875 198.832031 218.277344 199.140625 Z M 220.683594 201.503906 C 221.679688 202.285156 222.214844 204.5 222.003906 206.910156 C 221.808594 209.289062 221.253906 210.460938 220.210938 210.753906 C 218.308594 211.277344 217.203125 209.402344 217.203125 205.722656 C 217.203125 203.605469 217.511719 202.449219 218.257812 201.699219 C 218.699219 201.261719 218.910156 201.160156 219.527344 201.160156 C 220.015625 201.160156 220.390625 201.277344 220.683594 201.503906 Z M 220.683594 201.503906 " fill-opacity="1" fill-rule="nonzero"/></g><path fill="#0f3486" d="M 132.554688 205.964844 L 132.554688 212.886719 L 135.320312 212.886719 L 135.320312 207.1875 L 139.550781 207.1875 L 139.550781 205.070312 L 135.320312 205.070312 L 135.320312 201.324219 L 140.855469 201.324219 L 140.855469 199.042969 L 132.554688 199.042969 Z M 132.554688 205.964844 " fill-opacity="1" fill-rule="nonzero"/></svg>