<?xml version="1.0" encoding="UTF-8"?>
<svg id="Layer_1" data-name="Layer 1" xmlns="http://www.w3.org/2000/svg" xmlns:xlink="http://www.w3.org/1999/xlink" viewBox="0 0 614.02 610.88">
  <defs>
    <style>
      .cls-1 {
        fill: url(#linear-gradient);
      }

      .cls-1, .cls-2 {
        stroke-width: 0px;
      }

      .cls-2 {
        fill: #1b4a8d;
      }
    </style>
    <linearGradient id="linear-gradient" x1="306.33" y1="2103.89" x2="308.33" y2="1510.89" gradientTransform="translate(0 -1504)" gradientUnits="userSpaceOnUse">
      <stop offset="0" stop-color="#263c82"/>
      <stop offset="1" stop-color="#1e72a4"/>
    </linearGradient>
  </defs>
  <path class="cls-1" d="M31.25,1.7c-8.9,4-10.7,5.2-16.4,10.8C7.05,20.3,3.25,27.8,1.45,39,.75,43.3.35,133.1.15,308.5c-.3,294-.9,267.1,7,280.5,4.8,8,11,13.7,20.1,18.2l6.5,3.3,271.9.3c271.2.2,272,.2,277.4-1.8,14.1-5.3,25.3-17.7,29.7-33,1.4-5,1.5-30.4,1-271-.4-183.1-.9-266.9-1.7-270-3.3-13.8-12.7-25.5-25.4-31.5l-7.3-3.5-272.3.1C61.15.1,34.45.3,31.25,1.7ZM490.25,87.2c24.1,7.8,37.2,22,41.5,45.2,1.4,7.8,1.5,14.5.9,56.7-.6,38.4-1,47.9-2,48.3-.8.3-6.2.1-12.1-.5-6-.5-16.3-1.4-23-1.9-16.8-1.3-22.7-2.1-23.5-3.4-.4-.6-.8-19.2-.8-41.4,0-25.9-.4-41-1-42.3-1-1.7-2.2-1.9-13.3-1.9-8.2,0-12.7.4-13.5,1.2-.9.9-1.2,16.9-1.2,65.9v64.8l2.3.7c1.2.4,4.7,1.8,7.7,3.2,3,1.3,7.3,3.3,9.5,4.2,2.2,1,7,3.2,10.7,4.9s6.9,3.1,7.2,3.1,4.4,1.8,9.1,4,8.8,4,9.1,4c.2,0,3.9,1.7,8.1,3.7,5.1,2.5,9.7,5.7,13.8,9.7,6.9,6.8,9.7,11.6,11.4,19.4,1.5,7.1,1.5,137.8,0,147.1-4.1,25.6-22.1,42.8-48.4,46.1-10.6,1.3-43.8,1.3-52.8-.1-14.1-2.1-22.3-5.9-31.5-14.5-7.8-7.1-12.8-15.7-15.6-26.4-1.4-5.7-1.6-11.7-1.4-46.5l.3-40,29.4-.3c22.9-.2,29.6.1,30.3,1,.4.7.8,15.6.7,33.2,0,26.9.2,32.1,1.4,33.4,1.2,1.1,4.1,1.4,13.3,1.3,10.8-.1,12.1-.3,13.7-2.2,1.6-2,1.7-6.2,1.7-56.6v-54.4l-6.7-3c-3.8-1.7-8.7-3.9-11-5-2.4-1-6.2-2.7-8.5-3.8-2.4-1-8.1-3.5-12.6-5.5-4.6-2.1-11.7-5-15.8-6.6-16.9-6.5-28-15.1-33-25.6l-2.9-5.9-.8-39c-1.2-59.1-.4-128.7,1.6-135,6.2-20.5,20.8-34.3,42-39.6,6.3-1.6,10.7-1.8,34.2-1.5,20.1.3,28.2.7,31.5,1.8h0ZM203.85,89.7c2.3.5,7.4,2.6,11.5,4.7,11.2,5.5,19.7,14.2,25.1,25.6,5.3,11,5.6,15.7,5.7,72.8.1,33.6-.3,52-.9,53.3-1,1.8-2.4,1.9-29.9,1.9-22.9,0-29.1-.3-30-1.3-.7-1-1.2-15.9-1.3-49.3l-.3-47.9h-40l-.9,156.8c-.8,149.6-.8,156.9.9,158.7,1.7,1.9,3.2,2,20.1,2s18.3-.1,19.8-2.2c1.3-1.9,1.5-9.7,1-64.7-.4-34.4-.8-62.8-1-63-.3-.3-5.1-.4-10.7-.2-7.6.2-10.6-.1-11.4-1.1-.8-.9-.8-4.7-.2-12.8.5-6.3,1.5-18.8,2.2-27.6.8-10.4,1.7-16.8,2.6-17.8,1.2-1.4,5.6-1.6,39.7-1.6s38.4.2,39.2,1.6c.5.9.7,44.8.5,101.7l-.4,100.2-2.6,8.3c-2.9,9.5-9.7,20-16.6,25.6-6.3,5.1-18.2,10.4-26.7,11.7-4.7.7-18.7.9-40.8.6-30-.4-34.2-.7-38.7-2.4-17.7-6.7-27.1-15.8-34.1-32.8l-2.9-7-.6-170.5c-.4-96.9-.3-173.3.2-177,3-22.3,19.9-40.8,42.4-46.5,6.1-1.6,72.7-1.4,79.1.2h0ZM329.95,233.5c8.2,2.1,13.2,6.1,17.1,13.5,3.1,6,3.3,6.7,3,15.9l-.3,9.6h-30l-.7-4.9c-.4-2.7-1.3-5.3-2-5.7-.7-.5-5.4-.9-10.5-.9-8.1,0-9.4.2-10.3,1.9-1.5,2.9-1.3,26.3.3,28.4,1.1,1.6,4.3,1.8,31.5,2,25.6.2,30.4.4,31.2,1.7,1.1,1.8,1.3,23,.2,24.7-.4.6-2.5,1.3-4.7,1.5l-4,.3-.6,20.5c-.3,11.3-1,21.9-1.6,23.6-2.7,8-6.9,13.1-13.8,16.8-3.8,2-5.3,2.1-28,2.1s-24.2-.1-28.6-2.3c-5.5-2.6-10.3-7.7-13.2-14.1-1.9-4.2-2.1-6.4-2.1-25.1s.2-20.8,2.2-25.2c1.3-2.6,3.4-6.1,4.8-7.8l2.6-3-3.1-4.6c-4.5-6.8-5.3-12.5-4.9-32.4.3-16.8.4-17.7,3.1-23.3,3.3-6.5,9-11.1,16.5-13.2,7-1.9,38.5-1.9,45.9,0Z"/>
  <path class="cls-2" d="M295.85,323.2c-1.3,1.8-1.6,5.2-1.6,16.4,0,7.8.3,14.9.6,15.8.5,1.3,2.5,1.6,11.9,1.6,8,0,11.6-.4,12.3-1.3.9-1,1.7-22.5,1.2-33.5,0-.9-3-1.2-11.4-1.2-10.7,0-11.6.1-13,2.2Z"/>
</svg>